<?xml version="1.0" encoding="UTF-8" standalone="no"?>
<!DOCTYPE svg PUBLIC "-//W3C//DTD SVG 1.1//EN" "http://www.w3.org/Graphics/SVG/1.1/DTD/svg11.dtd">
<svg width="100%" height="100%" viewBox="0 0 2476 618" version="1.1" xmlns="http://www.w3.org/2000/svg" xmlns:xlink="http://www.w3.org/1999/xlink" xml:space="preserve" xmlns:serif="http://www.serif.com/" style="fill-rule:evenodd;clip-rule:evenodd;stroke-linejoin:round;stroke-miterlimit:2;">
    <g transform="matrix(1,0,0,1,-5369.88,-3542.95)">
        <g transform="matrix(1.01689,0,0,1.01,-133.194,-51.7715)">
            <g transform="matrix(4.65279,0,0,4.68453,5411.58,3559.13)">
                <path d="M67.32,98.81L27.1,98.81L20.69,120.5C19.251,125.353 14.752,128.698 9.69,128.68C4.376,128.654 0.018,124.274 0.018,118.96C0.018,117.955 0.174,116.957 0.48,116L35.28,8.84C36.99,3.583 41.922,0.001 47.45,0C53.004,0.002 57.952,3.619 59.64,8.91L93.46,115C93.788,116.028 93.955,117.101 93.955,118.18C93.955,123.924 89.228,128.65 83.485,128.65C83.476,128.65 83.468,128.65 83.46,128.65C79.026,128.649 75.097,125.698 73.86,121.44L67.32,98.81ZM32.5,80.69L62,80.69L47.43,30.23L32.5,80.69Z" style="fill:url(#_Linear1);fill-rule:nonzero;"/>
                <path d="M148.63,72.74L134.84,88.2L134.84,117.94C134.84,123.832 129.992,128.68 124.1,128.68C118.208,128.68 113.36,123.832 113.36,117.94L113.36,10.74C113.36,4.848 118.208,0 124.1,0C129.992,-0 134.84,4.848 134.84,10.74L134.84,60.28L146.59,45L177.38,4.07C179.305,1.51 182.327,0.001 185.53,-0C191.125,0 195.729,4.605 195.729,10.2C195.729,12.463 194.976,14.662 193.59,16.45L162.59,56.45L198.09,112.22C199.186,113.937 199.768,115.933 199.768,117.97C199.768,123.83 194.95,128.654 189.09,128.66C185.385,128.66 181.934,126.734 179.99,123.58L148.63,72.74Z" style="fill:url(#_Linear2);fill-rule:nonzero;"/>
                <path d="M284.56,98.81L244.34,98.81L237.69,121.29C236.395,125.662 232.35,128.682 227.79,128.68C222.138,128.667 217.495,124.012 217.495,118.36C217.495,117.277 217.665,116.2 218,115.17L252.52,8.84C254.23,3.583 259.162,0.001 264.69,0C270.244,0.002 275.192,3.619 276.88,8.91L310.77,115.25C311.093,116.262 311.257,117.318 311.257,118.38C311.257,124.014 306.634,128.657 301,128.68C296.431,128.679 292.383,125.638 291.11,121.25L284.56,98.81ZM249.73,80.69L279.25,80.69L264.67,30.23L249.73,80.69Z" style="fill:url(#_Linear3);fill-rule:nonzero;"/>
                <path d="M359,10.87L371.87,55.59L386.17,10.59C388.178,4.293 394.071,-0.008 400.68,0C409.024,0 415.89,6.866 415.89,15.21L415.89,118.69C415.89,124.176 411.376,128.69 405.89,128.69C400.404,128.69 395.89,124.176 395.89,118.69L395.89,84.49L397.13,28.1L379,84.54C377.999,87.66 375.077,89.791 371.8,89.79C368.473,89.79 365.519,87.595 364.56,84.41L348.28,30.23L349.52,84.5L349.52,118.7C349.52,124.186 345.006,128.7 339.52,128.7C334.034,128.7 329.52,124.186 329.52,118.7L329.52,15C329.52,6.771 336.291,0 344.52,0C351.216,-0.027 357.156,4.433 359,10.87Z" style="fill:url(#_Linear4);fill-rule:nonzero;"/>
                <path d="M512.66,0C518.385,-0 523.099,4.705 523.11,10.43L523.27,86.17C523.289,92.334 522.213,98.453 520.09,104.24C518.178,109.443 515.232,114.206 511.43,118.24C507.638,122.176 503.039,125.246 497.95,127.24C492.303,129.429 486.286,130.509 480.23,130.42C474.304,130.502 468.42,129.421 462.91,127.24C457.875,125.215 453.325,122.148 449.56,118.24C445.746,114.215 442.799,109.45 440.9,104.24C438.772,98.423 437.695,92.274 437.72,86.08L437.88,10.34C437.94,4.653 442.632,0.005 448.32,0C454.045,-0 458.759,4.705 458.77,10.43L458.93,86.17C458.952,89.83 459.457,93.472 460.43,97C461.26,100.066 462.639,102.956 464.5,105.53C466.223,107.88 468.478,109.789 471.08,111.1C473.929,112.481 477.065,113.167 480.23,113.1C483.465,113.161 486.672,112.477 489.6,111.1C492.276,109.804 494.609,107.895 496.41,105.53C498.319,102.974 499.727,100.079 500.56,97C501.535,93.458 502.04,89.803 502.06,86.13L502.22,10.39C502.253,4.684 506.954,0.005 512.66,0Z" style="fill:url(#_Linear5);fill-rule:nonzero;"/>
            </g>
        </g>
    </g>
    <defs>
        <linearGradient id="_Linear1" x1="0" y1="0" x2="1" y2="0" gradientUnits="userSpaceOnUse" gradientTransform="matrix(523.252,0,0,130.425,0.0182984,65.2125)"><stop offset="0" style="stop-color:rgb(64,168,196);stop-opacity:1"/><stop offset="1" style="stop-color:rgb(143,225,219);stop-opacity:1"/></linearGradient>
        <linearGradient id="_Linear2" x1="0" y1="0" x2="1" y2="0" gradientUnits="userSpaceOnUse" gradientTransform="matrix(523.252,0,0,130.425,0.0182984,65.2125)"><stop offset="0" style="stop-color:rgb(64,168,196);stop-opacity:1"/><stop offset="1" style="stop-color:rgb(143,225,219);stop-opacity:1"/></linearGradient>
        <linearGradient id="_Linear3" x1="0" y1="0" x2="1" y2="0" gradientUnits="userSpaceOnUse" gradientTransform="matrix(523.252,0,0,130.425,0.0182984,65.2125)"><stop offset="0" style="stop-color:rgb(64,168,196);stop-opacity:1"/><stop offset="1" style="stop-color:rgb(143,225,219);stop-opacity:1"/></linearGradient>
        <linearGradient id="_Linear4" x1="0" y1="0" x2="1" y2="0" gradientUnits="userSpaceOnUse" gradientTransform="matrix(523.252,0,0,130.425,0.0182984,65.2125)"><stop offset="0" style="stop-color:rgb(64,168,196);stop-opacity:1"/><stop offset="1" style="stop-color:rgb(143,225,219);stop-opacity:1"/></linearGradient>
        <linearGradient id="_Linear5" x1="0" y1="0" x2="1" y2="0" gradientUnits="userSpaceOnUse" gradientTransform="matrix(523.252,0,0,130.425,0.0182984,65.2125)"><stop offset="0" style="stop-color:rgb(64,168,196);stop-opacity:1"/><stop offset="1" style="stop-color:rgb(143,225,219);stop-opacity:1"/></linearGradient>
    </defs>
</svg>
