<?xml version="1.0" encoding="UTF-8" standalone="no"?>
<!DOCTYPE svg PUBLIC "-//W3C//DTD SVG 1.1//EN" "http://www.w3.org/Graphics/SVG/1.1/DTD/svg11.dtd">
<svg width="100%" height="100%" viewBox="0 0 2354 2308" version="1.1" xmlns="http://www.w3.org/2000/svg" xmlns:xlink="http://www.w3.org/1999/xlink" xml:space="preserve" xmlns:serif="http://www.serif.com/" style="fill-rule:evenodd;clip-rule:evenodd;stroke-linejoin:round;stroke-miterlimit:2;">
    <g transform="matrix(1,0,0,1,-8170.17,-608.019)">
        <g transform="matrix(1,0,0,1,-314.961,314.961)">
            <g transform="matrix(1.15175,0,0,1.15175,8247.07,17.9439)">
                <g id="gepunktete-Linie" serif:id="gepunktete Linie" transform="matrix(2.72507,0,0,2.72507,183.514,216.473)">
                    <g transform="matrix(1,0,0,1,57,50.6496)">
                        <circle cx="84.5" cy="374.5" r="13.5" style="fill:white;fill-opacity:0.5;"/>
                    </g>
                    <g transform="matrix(1,0,0,1,98,46.5584)">
                        <circle cx="84.5" cy="374.5" r="13.5" style="fill:white;fill-opacity:0.5;"/>
                    </g>
                    <g transform="matrix(1,0,0,1,139,50.9331)">
                        <circle cx="84.5" cy="374.5" r="13.5" style="fill:white;fill-opacity:0.5;"/>
                    </g>
                    <g transform="matrix(1,0,0,1,180,62.8931)">
                        <circle cx="84.5" cy="374.5" r="13.5" style="fill:white;fill-opacity:0.5;"/>
                    </g>
                    <g transform="matrix(1,0,0,1,219,80.5225)">
                        <circle cx="84.5" cy="374.5" r="13.5" style="fill:white;fill-opacity:0.5;"/>
                    </g>
                    <g transform="matrix(1,0,0,1,256,99)">
                        <circle cx="84.5" cy="374.5" r="13.5" style="fill:white;fill-opacity:0.5;"/>
                    </g>
                    <g transform="matrix(1,0,0,1,294,117.134)">
                        <circle cx="84.5" cy="374.5" r="13.5" style="fill:white;fill-opacity:0.5;"/>
                    </g>
                    <g transform="matrix(1,0,0,1,334,131.866)">
                        <circle cx="84.5" cy="374.5" r="13.5" style="fill:white;fill-opacity:0.5;"/>
                    </g>
                    <g transform="matrix(1,0,0,1,375.417,140.636)">
                        <circle cx="84.5" cy="374.5" r="13.5" style="fill:white;fill-opacity:0.5;"/>
                    </g>
                </g>
                <g transform="matrix(2.72507,0,0,2.72507,183.514,216.473)">
                    <g id="Logo-gepunktet" serif:id="Logo gepunktet">
                        <g>
                            <path d="M507.5,501.93C583.19,496.34 707.14,418.93 695.66,263.47C683.48,98.57 549.52,50.12 465.66,56.32C381,62.56 258,138.11 269.54,294.94C273.66,350.75 325.29,458.82 332.63,479.94C339.97,501.06 346.52,522.94 350,546.79C351.746,559.085 352.279,571.521 351.59,583.92C351.31,587.13 351.2,590.31 350.74,593.54L349.23,603.23C347.947,609.546 346.277,615.778 344.23,621.89C336.616,645.722 324.216,667.749 307.79,686.62C299.28,696.034 289.801,704.524 279.51,711.95C258.804,726.532 235.103,736.313 210.14,740.58C204.02,741.88 197.85,742.27 191.69,742.97C185.46,743.27 179.17,743.24 172.92,743.31C122.237,741.403 74.912,717.154 43.76,677.13C28.465,657.593 17.803,634.836 12.58,610.58C7.37,586.58 6.93,561.68 12.58,537.98C22.95,490.41 55.58,449.34 97.65,428.91C99.488,428.018 101.504,427.554 103.547,427.554C110.953,427.554 117.047,433.648 117.047,441.054C117.047,445.54 114.81,449.743 111.09,452.25L111.02,452.25C78.69,474.04 57.1,508.82 52.02,545.39C49.25,563.63 51.02,582.39 55.82,599.79C58.31,608.459 61.712,616.839 65.97,624.79C68.1,628.79 70.63,632.48 72.87,636.35C75.63,639.89 78.17,643.6 81.05,647.02C104.4,674.25 139.05,690.95 174.32,691.38L187.56,690.82C192,690.21 196.56,689.98 200.84,688.96C218.108,685.895 234.474,679.01 248.74,668.81C255.709,663.645 262.136,657.785 267.92,651.32C279.506,637.785 288.293,622.084 293.77,605.13C295.15,601.135 296.289,597.061 297.18,592.93L298.18,586.8C298.5,584.8 298.53,582.58 298.74,580.48C299.224,571.549 298.856,562.591 297.64,553.73C295.24,535.22 290.03,515.96 283.56,496.61C277.09,477.26 269.44,457.68 261.7,437.84C253.96,418 238.8,376.84 231.7,355.84C224.6,334.84 218.55,299.55 218.7,287.24C213.36,215.03 259.08,24.64 469.52,9.09C663.89,-5.21 751,159.75 757.62,249.18C773,457.76 582.48,523.37 510.53,528.69C510.306,528.701 510.081,528.707 509.857,528.707C502.467,528.707 496.387,522.626 496.387,515.237C496.387,509.137 500.531,503.762 506.43,502.21L507.5,501.93Z" style="fill:white;fill-rule:nonzero;"/>
                            <g transform="matrix(1,0,0,1,14.9567,31.9937)">
                                <path d="M456.78,292.74C456.006,292.798 455.23,292.826 454.453,292.826C437.222,292.826 423.043,278.647 423.043,261.416C423.043,244.185 437.222,230.006 454.453,230.006C470.823,230.006 484.588,242.804 485.78,259.13C486.994,276.288 473.931,291.428 456.78,292.74Z" style="fill:white;fill-rule:nonzero;"/>
                            </g>
                        </g>
                    </g>
                </g>
            </g>
        </g>
    </g>
</svg>
